<svg id="visual" viewBox="0 0 900 600" width="900" height="600" xmlns="http://www.w3.org/2000/svg" xmlns:xlink="http://www.w3.org/1999/xlink" version="1.1"><rect x="0" y="0" width="900" height="600" fill="#032845"></rect><path d="M564 600L579.8 585.7C595.7 571.3 627.3 542.7 623.3 514.2C619.3 485.7 579.7 457.3 582.3 428.8C585 400.3 630 371.7 652.3 343C674.7 314.3 674.3 285.7 655.8 257C637.3 228.3 600.7 199.7 583.8 171.2C567 142.7 570 114.3 563.8 85.8C557.7 57.3 542.3 28.7 534.7 14.3L527 0L900 0L900 14.3C900 28.7 900 57.3 900 85.8C900 114.3 900 142.7 900 171.2C900 199.7 900 228.3 900 257C900 285.7 900 314.3 900 343C900 371.7 900 400.3 900 428.8C900 457.3 900 485.7 900 514.2C900 542.7 900 571.3 900 585.7L900 600Z" fill="#154c79"></path><path d="M687 600L689.2 585.7C691.3 571.3 695.7 542.7 697.5 514.2C699.3 485.7 698.7 457.3 687.8 428.8C677 400.3 656 371.7 659.8 343C663.7 314.3 692.3 285.7 685.3 257C678.3 228.3 635.7 199.7 634.3 171.2C633 142.7 673 114.3 691.2 85.8C709.3 57.3 705.7 28.7 703.8 14.3L702 0L900 0L900 14.3C900 28.7 900 57.3 900 85.8C900 114.3 900 142.7 900 171.2C900 199.7 900 228.3 900 257C900 285.7 900 314.3 900 343C900 371.7 900 400.3 900 428.8C900 457.3 900 485.7 900 514.2C900 542.7 900 571.3 900 585.7L900 600Z" fill="#00bfbd"></path><path d="M676 600L686.3 585.7C696.7 571.3 717.3 542.7 722 514.2C726.7 485.7 715.3 457.3 717.5 428.8C719.7 400.3 735.3 371.7 734.2 343C733 314.3 715 285.7 706.3 257C697.7 228.3 698.3 199.7 703.3 171.2C708.3 142.7 717.7 114.3 711.3 85.8C705 57.3 683 28.7 672 14.3L661 0L900 0L900 14.3C900 28.7 900 57.3 900 85.8C900 114.3 900 142.7 900 171.2C900 199.7 900 228.3 900 257C900 285.7 900 314.3 900 343C900 371.7 900 400.3 900 428.8C900 457.3 900 485.7 900 514.2C900 542.7 900 571.3 900 585.7L900 600Z" fill="#69fa72"></path><path d="M741 600L740.2 585.7C739.3 571.3 737.7 542.7 734.8 514.2C732 485.7 728 457.3 734.3 428.8C740.7 400.3 757.3 371.7 761.7 343C766 314.3 758 285.7 760.3 257C762.7 228.3 775.3 199.7 775.8 171.2C776.3 142.7 764.7 114.3 766.5 85.8C768.3 57.3 783.7 28.7 791.3 14.3L799 0L900 0L900 14.3C900 28.7 900 57.3 900 85.8C900 114.3 900 142.7 900 171.2C900 199.7 900 228.3 900 257C900 285.7 900 314.3 900 343C900 371.7 900 400.3 900 428.8C900 457.3 900 485.7 900 514.2C900 542.7 900 571.3 900 585.7L900 600Z" fill="#00bfbd"></path><path d="M832 600L836.2 585.7C840.3 571.3 848.7 542.7 849.3 514.2C850 485.7 843 457.3 839.7 428.8C836.3 400.3 836.7 371.7 840.2 343C843.7 314.3 850.3 285.7 843.2 257C836 228.3 815 199.7 811.5 171.2C808 142.7 822 114.3 826 85.8C830 57.3 824 28.7 821 14.3L818 0L900 0L900 14.3C900 28.7 900 57.3 900 85.8C900 114.3 900 142.7 900 171.2C900 199.7 900 228.3 900 257C900 285.7 900 314.3 900 343C900 371.7 900 400.3 900 428.8C900 457.3 900 485.7 900 514.2C900 542.7 900 571.3 900 585.7L900 600Z" fill="#154c79"></path></svg>