<svg id="visual" viewBox="0 0 900 600" width="900" height="600" xmlns="http://www.w3.org/2000/svg" xmlns:xlink="http://www.w3.org/1999/xlink" version="1.1"><rect x="0" y="0" width="900" height="600" fill="#032845"></rect><defs><linearGradient id="grad1_0" x1="33.3%" y1="0%" x2="100%" y2="100%"><stop offset="20%" stop-color="#0ff72c" stop-opacity="1"></stop><stop offset="80%" stop-color="#0ff72c" stop-opacity="1"></stop></linearGradient></defs><defs><linearGradient id="grad1_1" x1="33.3%" y1="0%" x2="100%" y2="100%"><stop offset="20%" stop-color="#0ff72c" stop-opacity="1"></stop><stop offset="80%" stop-color="#00b598" stop-opacity="1"></stop></linearGradient></defs><defs><linearGradient id="grad1_2" x1="33.3%" y1="0%" x2="100%" y2="100%"><stop offset="20%" stop-color="#006c97" stop-opacity="1"></stop><stop offset="80%" stop-color="#00b598" stop-opacity="1"></stop></linearGradient></defs><defs><linearGradient id="grad1_3" x1="33.3%" y1="0%" x2="100%" y2="100%"><stop offset="20%" stop-color="#006c97" stop-opacity="1"></stop><stop offset="80%" stop-color="#032845" stop-opacity="1"></stop></linearGradient></defs><defs><linearGradient id="grad2_0" x1="0%" y1="0%" x2="66.7%" y2="100%"><stop offset="20%" stop-color="#0ff72c" stop-opacity="1"></stop><stop offset="80%" stop-color="#0ff72c" stop-opacity="1"></stop></linearGradient></defs><defs><linearGradient id="grad2_1" x1="0%" y1="0%" x2="66.7%" y2="100%"><stop offset="20%" stop-color="#00b598" stop-opacity="1"></stop><stop offset="80%" stop-color="#0ff72c" stop-opacity="1"></stop></linearGradient></defs><defs><linearGradient id="grad2_2" x1="0%" y1="0%" x2="66.7%" y2="100%"><stop offset="20%" stop-color="#00b598" stop-opacity="1"></stop><stop offset="80%" stop-color="#006c97" stop-opacity="1"></stop></linearGradient></defs><defs><linearGradient id="grad2_3" x1="0%" y1="0%" x2="66.7%" y2="100%"><stop offset="20%" stop-color="#032845" stop-opacity="1"></stop><stop offset="80%" stop-color="#006c97" stop-opacity="1"></stop></linearGradient></defs><g transform="translate(900, 0)"><path d="M0 324.5C-36.4 298.5 -72.7 272.6 -104.5 252.2C-136.2 231.9 -163.4 217.2 -198.7 198.7C-234 180.2 -277.5 157.9 -299.8 124.2C-322.1 90.4 -323.3 45.2 -324.5 0L0 0Z" fill="#004874"></path><path d="M0 243.4C-27.3 223.9 -54.5 204.4 -78.4 189.2C-102.2 173.9 -122.5 162.9 -149 149C-175.5 135.2 -208.1 118.4 -224.8 93.1C-241.6 67.8 -242.5 33.9 -243.4 0L0 0Z" fill="#0091a4"></path><path d="M0 162.2C-18.2 149.3 -36.4 136.3 -52.2 126.1C-68.1 115.9 -81.7 108.6 -99.3 99.3C-117 90.1 -138.7 79 -149.9 62.1C-161.1 45.2 -161.7 22.6 -162.2 0L0 0Z" fill="#00d873"></path><path d="M0 81.1C-9.1 74.6 -18.2 68.1 -26.1 63.1C-34.1 58 -40.8 54.3 -49.7 49.7C-58.5 45.1 -69.4 39.5 -74.9 31C-80.5 22.6 -80.8 11.3 -81.1 0L0 0Z" fill="#0ff72c"></path></g><g transform="translate(0, 600)"><path d="M0 -324.5C31.2 -293.4 62.4 -262.3 104.1 -251.3C145.8 -240.3 197.9 -249.3 229.5 -229.5C261.1 -209.6 272.1 -160.9 284.6 -117.9C297 -74.8 310.7 -37.4 324.5 0L0 0Z" fill="#004874"></path><path d="M0 -243.4C23.4 -220.1 46.8 -196.7 78.1 -188.5C109.3 -180.2 148.4 -187 172.1 -172.1C195.8 -157.2 204.1 -120.7 213.4 -88.4C222.7 -56.1 233.1 -28.1 243.4 0L0 0Z" fill="#0091a4"></path><path d="M0 -162.2C15.6 -146.7 31.2 -131.2 52 -125.6C72.9 -120.1 98.9 -124.6 114.7 -114.7C130.5 -104.8 136.1 -80.5 142.3 -58.9C148.5 -37.4 155.4 -18.7 162.2 0L0 0Z" fill="#00d873"></path><path d="M0 -81.1C7.8 -73.4 15.6 -65.6 26 -62.8C36.4 -60.1 49.5 -62.3 57.4 -57.4C65.3 -52.4 68 -40.2 71.1 -29.5C74.2 -18.7 77.7 -9.4 81.1 0L0 0Z" fill="#0ff72c"></path></g></svg>